<svg height="512pt" viewBox="0 0 512 512" width="512pt" xmlns="http://www.w3.org/2000/svg"><path d="m361.53125 196.171875c0 64.351563-47.246094 116.503906-105.53125 116.503906s-105.53125-52.152343-105.53125-116.503906c0-22.316406 5.6875-53.734375 15.539062-85.246094h179.984376c9.851562 31.511719 15.539062 62.929688 15.539062 85.246094zm0 0" fill="#d8edf7"/><path d="m318.574219 290c-17.496094 14.253906-39.144531 22.679688-62.574219 22.679688-58.277344 0-105.53125-52.152344-105.53125-116.503907 0-22.316406 5.6875-53.734375 15.550781-85.246093h42.398438c-5.210938 31.511718-8.222657 62.929687-8.222657 85.246093 0 64.351563 24.984376 106.363281 55.804688 106.363281 15.269531 0 38.496094 2.6875 62.574219-12.539062zm0 0" fill="#a8c3cf"/><path d="m361.53125 196.171875c0 64.351563-47.246094 116.503906-105.53125 116.503906s-105.53125-52.152343-105.53125-116.503906zm0 0" fill="#d4243e"/><path d="m318.574219 289.996094c-1.683594 1.367187-3.40625 2.683594-5.160157 3.941406-.414062.304688-.832031.589844-1.246093.882812-.234375.164063-.457031.324219-.691407.476563-.402343.285156-.808593.558594-1.226562.832031-1.429688.941406-2.867188 1.84375-4.335938 2.71875-.601562.351563-1.199218.699219-1.796874 1.042969-.082032.050781-.171876.089844-.253907.140625-.554687.316406-1.113281.628906-1.683593.921875-.230469.132813-.476563.253906-.707032.375-.671875.367187-1.359375.710937-2.039062 1.054687-.71875.355469-1.441406.710938-2.167969 1.054688-.0625.019531-.125.050781-.183594.082031-.730469.34375-1.449219.667969-2.191406.984375-.171875.082032-.355469.160156-.527344.230469-.566406.246094-1.132812.488281-1.710937.722656-.214844.089844-.425782.171875-.640625.253907-.710938.292968-1.4375.578124-2.160157.839843-.820312.304688-1.640624.597657-2.460937.882813-.964844.335937-1.929687.648437-2.902344.941406-.648437.203125-1.296875.398438-1.945312.578125-.121094.042969-.242188.070313-.355469.101563-.585938.171874-1.175781.335937-1.761719.476562-1.015625.273438-2.03125.519531-3.054687.75-.6875.164062-1.386719.304688-2.078125.445312-.628907.132813-1.257813.253907-1.894531.367188-.121094.03125-.242188.050781-.375.070312-.597657.113282-1.207032.214844-1.804688.304688-.132812.03125-.273438.050781-.40625.058594-.578125.101562-1.164062.183594-1.742188.265625-.933593.121093-1.867187.242187-2.808593.335937-.710938.078125-1.421875.152344-2.140625.203125-.699219.058594-1.398438.109375-2.109375.148438-.394531.03125-.789063.050781-1.1875.0625-.699219.050781-1.398438.070312-2.097657.089843-.910156.03125-1.8125.042969-2.726562.042969-1.792969 0-3.609375-.050781-5.433594-.152343-55.753906-3.125-100.097656-54.007813-100.097656-116.351563h49.726562c0 64.351563 24.984376 106.363281 55.804688 106.363281 15.269531 0 38.496094 2.6875 62.574219-12.539062zm0 0" fill="#d61616"/><path d="m256 7.605469c-137.1875 0-248.394531 111.207031-248.394531 248.394531s111.207031 248.394531 248.394531 248.394531 248.394531-111.207031 248.394531-248.394531-111.207031-248.394531-248.394531-248.394531zm-203.714844 248.394531c0-69.039062 34.351563-130.050781 86.890625-166.894531l194.460938 355.277343c-23.925781 9.871094-50.144531 15.332032-77.636719 15.332032-112.507812 0-203.714844-91.207032-203.714844-203.714844zm320.53125 166.898438-194.460937-355.277344c23.929687-9.875 50.148437-15.335938 77.644531-15.335938 112.507812 0 203.703125 91.207032 203.703125 203.714844 0 69.042969-34.347656 130.054688-86.886719 166.898438zm0 0" fill="#ff5a73"/><path d="m339.550781 197.234375c0-21.164063-8.871093-38.316406-19.816406-38.316406s-19.816406 17.152343-19.816406 38.316406c0 21.160156 8.871093 38.3125 19.816406 38.3125s19.816406-17.152344 19.816406-38.3125zm0 0" fill="#dae6ea"/><path d="m339.554688 197.234375c0 21.160156-8.871094 38.3125-19.820313 38.3125s-19.820313-17.152344-19.820313-38.3125c0-.355469 0-.710937.019532-1.0625h39.601562c.019532.351563.019532.707031.019532 1.0625zm0 0" fill="#ff5a73"/><path d="m437.019531 74.980469c-48.351562-48.351563-112.640625-74.980469-181.019531-74.980469s-132.667969 26.628906-181.019531 74.980469c-48.351563 48.351562-74.980469 112.640625-74.980469 181.019531 0 48.453125 13.601562 95.621094 39.332031 136.410156 25.03125 39.683594 60.40625 71.734375 102.300781 92.691406 3.753907 1.875 8.324219.355469 10.199219-3.402343 1.878907-3.753907.359375-8.324219-3.398437-10.199219-39.40625-19.714844-72.6875-49.867188-96.238282-87.203125-24.199218-38.355469-36.988281-82.722656-36.988281-128.296875 0-64.316406 25.046875-124.785156 70.527344-170.265625s105.949219-70.527344 170.265625-70.527344 124.785156 25.046875 170.265625 70.527344 70.527344 105.949219 70.527344 170.265625-25.046875 124.785156-70.527344 170.265625-105.949219 70.527344-170.265625 70.527344c-27.648438 0-54.738281-4.640625-80.511719-13.789063-3.957031-1.402344-8.304687.664063-9.710937 4.625-1.402344 3.957032.667968 8.304688 4.625 9.707032 27.410156 9.730468 56.207031 14.664062 85.597656 14.664062 68.378906 0 132.667969-26.628906 181.019531-74.980469 48.351563-48.351562 74.980469-112.640625 74.980469-181.019531s-26.628906-132.667969-74.980469-181.019531zm0 0"/><path d="m140.902344 81.699219c-2.109375-.492188-4.320313-.0625-6.09375 1.179687-56.433594 39.578125-90.128906 104.296875-90.128906 173.121094 0 116.523438 94.796874 211.320312 211.320312 211.320312 27.859375 0 54.957031-5.351562 80.539062-15.910156 1.996094-.824218 3.550782-2.460937 4.269532-4.496094.71875-2.039062.539062-4.285156-.5-6.183593l-194.460938-355.277344c-1.039062-1.898437-2.839844-3.261719-4.945312-3.753906zm115.097656 370.410156c-108.136719 0-196.109375-87.972656-196.109375-196.109375 0-61.03125 28.546875-118.582031 76.78125-155.628906l16.09375 29.402344c-6.386719 24.925781-9.902344 48.410156-9.902344 66.398437 0 65.628906 46.683594 119.515625 105.53125 123.820313v86.316406h-31.480469c-4.199218 0-7.601562 3.40625-7.601562 7.605468 0 4.199219 3.402344 7.605469 7.601562 7.605469h78.167969c4.199219 0 7.605469-3.40625 7.605469-7.605469 0-4.199218-3.40625-7.605468-7.605469-7.605468h-31.476562v-74.039063l59.199219 108.15625c-21.375 7.757813-43.808594 11.683594-66.804688 11.683594zm-71.050781-263.542969h-26.664063c.59375-11.363281 2.449219-24.601562 5.425782-38.800781zm-26.636719 15.210938h34.960938l55.273437 100.980468c-48.273437-4.058593-86.882813-47.210937-90.234375-100.980468zm0 0"/><path d="m366.148438 426.546875c1.039062 1.898437 2.835937 3.265625 4.941406 3.757813.574218.132812 1.152344.195312 1.726562.195312 1.550782 0 3.078125-.472656 4.367188-1.378906 56.433594-39.574219 90.125-104.292969 90.125-173.121094 0-116.523438-94.792969-211.320312-211.308594-211.320312-27.859375 0-54.960938 5.355468-80.546875 15.910156-1.996094.824218-3.550781 2.460937-4.269531 4.5-.71875 2.039062-.535156 4.285156.5 6.179687zm-104.597657-222.769531h92.140625c-2.164062 34.84375-19.136718 66.222656-45.769531 84.71875zm-5.550781-143.886719c108.128906 0 196.101562 87.972656 196.101562 196.109375 0 61.03125-28.546874 118.585938-76.78125 155.628906l-60.058593-109.726562c33.40625-22.507813 53.875-62.316406 53.875-105.730469 0-23.332031-5.792969-55.230469-15.890625-87.515625-.992188-3.175781-3.929688-5.335938-7.253906-5.335938h-46.046876c-4.199218 0-7.601562 3.40625-7.601562 7.605469s3.402344 7.605469 7.601562 7.605469h40.414063c7.515625 25.257812 12.3125 50.515625 13.351563 70.035156h-100.484376l-38.335937-70.035156h54.636719c4.199218 0 7.605468-3.40625 7.605468-7.605469s-3.40625-7.605469-7.605468-7.605469h-62.960938l-17.378906-31.746093c21.378906-7.757813 43.8125-11.683594 66.8125-11.683594zm0 0"/></svg>