<svg id="Capa_1" enable-background="new 0 0 512 512" height="512" viewBox="0 0 512 512" width="512" xmlns="http://www.w3.org/2000/svg"><path d="m256 0h155.428c11.421 0 20.679 9.258 20.679 20.679v288.161h26.679c9.426 0 13.936 11.581 6.992 17.956l-195.793 179.758c-7.909 7.262-20.061 7.262-27.97 0l-195.793-179.758c-6.943-6.375-2.433-17.956 6.993-17.956h26.679v-288.161c-.001-11.421 9.257-20.679 20.678-20.679z" fill="#ff4755"/><path d="m191.274 338.3 64.726-30.325v-79.888l-64.726 30.325z" fill="#999"/><path d="m237.389 236.822v79.873l18.611-8.72v-79.888z" fill="#8c8c8c"/><path d="m256 228.087 64.726-30.325v-79.888l-64.726 30.325z" fill="#999"/><path d="m320.726 338.3 64.725-30.325v-79.888l-64.725 30.325z" fill="#999"/><g fill="#c6c6c6"><path d="m191.274 338.3-64.726-30.325v-79.888l64.726 30.325z"/><path d="m256 228.087-64.726-30.325v-79.888l64.726 30.325z"/><path d="m320.726 338.3-64.726-30.325v-79.888l64.726 30.325z"/></g><path d="m126.548 228.087 64.726-30.325 64.726 30.325-64.726 30.325z" fill="#e0e0e0"/><path d="m191.274 117.874 64.726-30.324 64.726 30.324-64.726 30.325z" fill="#e0e0e0"/><path d="m256 228.087 64.726-30.325 64.725 30.325-64.725 30.325z" fill="#e0e0e0"/><path d="m302.115 126.609v79.873l18.611-8.72v-79.888z" fill="#8c8c8c"/><path d="m366.84 236.822v79.873l18.611-8.72v-79.888z" fill="#8c8c8c"/><path d="m172.663 206.497 64.71 30.317 18.627-8.727-64.726-30.325z" fill="#ccc"/><path d="m237.389 96.285 64.709 30.317 18.628-8.728-64.726-30.324z" fill="#ccc"/><path d="m302.115 206.497 64.709 30.317 18.627-8.727-64.725-30.325z" fill="#ccc"/><path d="m413.496 20.679v282.991c0 2.855 2.315 5.17 5.17 5.17h13.441v-288.161c0-11.421-9.258-20.679-20.679-20.679h-18.611c11.421 0 20.679 9.258 20.679 20.679z" fill="#fc2b3a"/><path d="m458.786 308.84h-18.611c9.426 0 13.936 11.581 6.993 17.956l-195.794 179.758c-1.436 1.318-3.015 2.39-4.68 3.23 7.505 3.785 16.817 2.713 23.291-3.23l195.793-179.758c6.944-6.375 2.433-17.956-6.992-17.956z" fill="#fc2b3a"/></svg>